<svg width="55" height="16" viewBox="0 0 55 16" fill="none" xmlns="http://www.w3.org/2000/svg">
<path d="M24.2609 9.57385C24.2609 9.89859 23.9894 10.165 23.6501 10.165H19.4171C19.6716 10.8895 20.3587 11.4057 21.1816 11.4057C21.4615 11.4057 21.9705 11.3807 22.5558 11.006C22.8357 10.8228 23.2175 10.9977 23.3617 11.2808C23.5059 11.5806 23.3532 11.897 23.0648 12.0718C22.2589 12.6047 21.6312 12.5881 21.1731 12.5881C19.468 12.5881 18.0938 11.2308 18.0938 9.56553C18.0938 7.89188 19.468 6.54297 21.1731 6.54297C22.6661 6.5513 24.2609 7.60877 24.2609 9.57385ZM19.4171 8.97434H22.963C22.7085 8.13335 21.9196 7.75033 21.1816 7.75033C20.3587 7.742 19.6716 8.25825 19.4171 8.97434Z" fill="#F15A2E"/>
<path d="M33.6258 9.02862C33.6343 9.05359 33.6343 9.06192 33.6343 9.0869V12.0095C33.6343 12.3509 33.3544 12.6091 33.0236 12.6091C32.6927 12.6091 32.4213 12.3426 32.4213 12.0095V9.0869C32.4213 9.06192 32.4213 9.05359 32.4213 9.02862C32.4213 9.02029 32.4213 9.00364 32.4213 8.97866C32.4213 8.3042 31.8614 7.76297 31.1743 7.76297C30.4871 7.76297 29.9273 8.3042 29.9273 8.97866V12.0095C29.9273 12.3509 29.6558 12.6091 29.325 12.6091C28.9941 12.6091 28.7142 12.3426 28.7142 12.0095V8.97866C28.7142 8.3042 28.1628 7.76297 27.4757 7.76297C26.7886 7.76297 26.2287 8.3042 26.2287 8.97866V12.0095C26.2287 12.3509 25.9572 12.6091 25.6264 12.6091C25.2786 12.6091 25.0156 12.3426 25.0156 12.0095V8.97866C25.0156 7.65472 26.1184 6.57227 27.4757 6.57227C28.2137 6.57227 28.8754 6.88868 29.325 7.40493C29.7831 6.88868 30.4362 6.57227 31.1743 6.57227C32.5315 6.57227 33.6343 7.65472 33.6343 8.97866C33.6343 9.00364 33.6343 9.01196 33.6258 9.02862Z" fill="#F15A2E"/>
<path d="M35.5959 12.032V15.0295C35.5959 15.3543 35.3244 15.6207 34.9936 15.6207C34.6543 15.6207 34.3828 15.3543 34.3828 15.0295V9.64222V9.63389C34.3828 7.97689 35.7655 6.61133 37.4621 6.61133C39.1672 6.61133 40.5415 7.96857 40.5415 9.63389C40.5415 11.3075 39.1672 12.6564 37.4621 12.6564C36.758 12.6398 36.1049 12.415 35.5959 12.032ZM35.5959 9.62556C35.5959 10.6331 36.4272 11.4491 37.4621 11.4491C38.4886 11.4491 39.3284 10.6331 39.3284 9.61724C39.3284 8.61804 38.4971 7.78538 37.4621 7.78538C36.4272 7.79371 35.5959 8.60972 35.5959 9.62556Z" fill="#F15A2E"/>
<path d="M47.3774 9.57385C47.3774 9.89859 47.1059 10.165 46.7666 10.165H42.5421C42.7966 10.8895 43.4837 11.4057 44.3066 11.4057C44.5865 11.4057 45.0955 11.3807 45.6808 11.006C45.9607 10.8228 46.3425 10.9977 46.4867 11.2808C46.6309 11.5806 46.4782 11.897 46.1898 12.0718C45.3839 12.6047 44.7562 12.5881 44.2981 12.5881C42.593 12.5881 41.2188 11.2308 41.2188 9.56553C41.2188 7.89188 42.593 6.54297 44.2981 6.54297C45.7826 6.5513 47.3774 7.60877 47.3774 9.57385ZM42.5336 8.97434H46.0795C45.825 8.13335 45.0361 7.75033 44.2981 7.75033C43.4837 7.742 42.7966 8.25825 42.5336 8.97434Z" fill="#F15A2E"/>
<path d="M48.125 9.57334C48.125 7.89969 49.5077 6.55078 51.2043 6.55078C52.9094 6.55078 54.2836 7.89969 54.2836 9.57334C54.2836 11.2303 52.9094 12.5959 51.2043 12.5959C49.5077 12.5959 48.125 11.2303 48.125 9.57334ZM49.3381 9.57334C49.3381 10.5725 50.1694 11.4052 51.2043 11.4052C52.2392 11.4052 53.0706 10.5725 53.0706 9.57334C53.0706 8.56582 52.2392 7.74149 51.2043 7.74149C50.1694 7.74149 49.3381 8.56582 49.3381 9.57334Z" fill="#F15A2E"/>
<path d="M15.3266 12.588C15.4433 12.2328 15.5017 11.8432 15.5017 11.4422C15.5017 9.32251 13.7507 7.6153 11.6029 7.6153C10.6691 7.6153 9.80526 7.93612 9.12823 8.48609C8.22942 7.19136 6.71194 6.33203 4.99602 6.33203C2.22953 6.33203 0 8.53192 0 11.236C0 11.7057 0.0700376 12.164 0.19844 12.588C0.186767 12.588 15.3266 12.588 15.3266 12.588Z" fill="#F15A2E"/>
<path d="M5.11015 5.47681C6.65093 5.47681 7.89998 4.25079 7.89998 2.73841C7.89998 1.22603 6.65093 0 5.11015 0C3.56936 0 2.32031 1.22603 2.32031 2.73841C2.32031 4.25079 3.56936 5.47681 5.11015 5.47681Z" fill="#F15A2E"/>
<path d="M11.6441 6.94172C12.7981 6.94172 13.7336 6.02349 13.7336 4.89078C13.7336 3.75808 12.7981 2.83984 11.6441 2.83984C10.4902 2.83984 9.55469 3.75808 9.55469 4.89078C9.55469 6.02349 10.4902 6.94172 11.6441 6.94172Z" fill="#F15A2E"/>
<path d="M42.3231 0.0292969C42.392 0.0292969 42.448 0.0494015 42.4911 0.0896106C42.5342 0.12982 42.5557 0.182953 42.5557 0.249011C42.5557 0.297836 42.5414 0.346662 42.5126 0.395487L41.7156 1.73962V2.71756C41.7156 2.80086 41.6941 2.86691 41.651 2.91574C41.6079 2.96169 41.5462 2.98467 41.4658 2.98467C41.3853 2.98467 41.3236 2.96169 41.2805 2.91574C41.2374 2.86691 41.2159 2.80086 41.2159 2.71756V1.76978L40.4189 0.41272C40.3844 0.352406 40.3672 0.297836 40.3672 0.249011C40.3672 0.185825 40.3887 0.134128 40.4318 0.0939187C40.4778 0.0537096 40.5366 0.033605 40.6084 0.033605C40.6544 0.033605 40.6975 0.0479654 40.7377 0.0766862C40.7808 0.102535 40.8167 0.141308 40.8454 0.193006L41.4658 1.29588L42.0947 0.184389C42.1206 0.135564 42.1536 0.0982268 42.1938 0.0723781C42.234 0.0436573 42.2771 0.0292969 42.3231 0.0292969Z" fill="#838395"/>
<path d="M39.7148 1.40744C39.8813 1.46201 40.0077 1.55248 40.0939 1.67885C40.1829 1.80235 40.2274 1.95601 40.2274 2.13982C40.2274 2.40118 40.1398 2.60366 39.9646 2.74726C39.7923 2.888 39.5482 2.95836 39.2323 2.95836H38.5128C38.4295 2.95836 38.3649 2.93395 38.3189 2.88512C38.273 2.8363 38.25 2.76881 38.25 2.68264V0.330407C38.25 0.244245 38.273 0.176751 38.3189 0.127926C38.3649 0.0791002 38.4295 0.0546875 38.5128 0.0546875H39.0987C39.4031 0.0546875 39.6401 0.122181 39.8095 0.257169C39.979 0.389285 40.0637 0.574534 40.0637 0.812917C40.0637 0.947905 40.0336 1.0671 39.9732 1.17049C39.9158 1.27101 39.8296 1.35 39.7148 1.40744ZM38.7411 0.455343V1.25665H39.103C39.2437 1.25665 39.3529 1.22075 39.4304 1.14895C39.508 1.07715 39.5467 0.978062 39.5467 0.85169C39.5467 0.731063 39.5065 0.634848 39.4261 0.563046C39.3486 0.491244 39.2409 0.455343 39.103 0.455343H38.7411ZM39.2021 2.5534C39.3629 2.5534 39.4864 2.51463 39.5726 2.43708C39.6616 2.35666 39.7061 2.24609 39.7061 2.10535C39.7061 1.96175 39.6616 1.85118 39.5726 1.77363C39.4836 1.69321 39.3601 1.653 39.2021 1.653H38.7411V2.5534H39.2021Z" fill="#838395"/>
<path d="M35.3066 0.0546875C35.6168 0.0546875 35.8882 0.115001 36.1209 0.235629C36.3564 0.353384 36.5373 0.521401 36.6637 0.739679C36.793 0.957957 36.8576 1.2107 36.8576 1.49791C36.8576 1.79086 36.793 2.04791 36.6637 2.26906C36.5373 2.48734 36.3564 2.65679 36.1209 2.77742C35.8882 2.89805 35.6168 2.95836 35.3066 2.95836H34.669C34.5858 2.95836 34.5211 2.93395 34.4752 2.88512C34.4292 2.8363 34.4062 2.76881 34.4062 2.68264V0.330407C34.4062 0.244245 34.4292 0.176751 34.4752 0.127926C34.5211 0.0791002 34.5858 0.0546875 34.669 0.0546875H35.3066ZM35.2894 2.54909C35.614 2.54909 35.8681 2.45718 36.052 2.27337C36.2386 2.08669 36.332 1.8282 36.332 1.49791C36.332 1.17624 36.2386 0.923492 36.052 0.739679C35.8681 0.555866 35.614 0.463959 35.2894 0.463959H34.906V2.54909H35.2894Z" fill="#838395"/>
<path d="M33.7347 2.54909C33.8036 2.54909 33.8568 2.56776 33.8941 2.6051C33.9343 2.63956 33.9544 2.68839 33.9544 2.75157C33.9544 2.81763 33.9343 2.86933 33.8941 2.90667C33.8568 2.94113 33.8036 2.95836 33.7347 2.95836H32.5284C32.4451 2.95836 32.3805 2.93395 32.3346 2.88512C32.2886 2.8363 32.2656 2.76881 32.2656 2.68264V0.330407C32.2656 0.244245 32.2886 0.176751 32.3346 0.127926C32.3805 0.0791002 32.4451 0.0546875 32.5284 0.0546875H33.7132C33.7821 0.0546875 33.8352 0.0733561 33.8726 0.110693C33.9128 0.145158 33.9329 0.195419 33.9329 0.261477C33.9329 0.324663 33.9128 0.374925 33.8726 0.412262C33.8352 0.446727 33.7821 0.463959 33.7132 0.463959H32.7654V1.22219H33.6098C33.6787 1.22219 33.7318 1.24086 33.7692 1.27819C33.8094 1.31266 33.8295 1.36149 33.8295 1.42467C33.8295 1.48786 33.8094 1.53812 33.7692 1.57546C33.7318 1.60992 33.6787 1.62715 33.6098 1.62715H32.7654V2.54909H33.7347Z" fill="#838395"/>
<path d="M31.7256 2.59217C31.7658 2.65536 31.7859 2.71424 31.7859 2.76881C31.7859 2.82912 31.7615 2.88082 31.7127 2.9239C31.6667 2.96411 31.6136 2.98421 31.5533 2.98421C31.4671 2.98421 31.391 2.93682 31.3249 2.84204L30.6443 1.81671H30.3513V2.71711C30.3513 2.8004 30.3298 2.86646 30.2867 2.91528C30.2436 2.96124 30.1819 2.98421 30.1014 2.98421C30.021 2.98421 29.9593 2.96124 29.9162 2.91528C29.8731 2.86646 29.8516 2.8004 29.8516 2.71711V0.330408C29.8516 0.241373 29.8745 0.173879 29.9205 0.127926C29.9664 0.0791002 30.0311 0.0546875 30.1144 0.0546875H30.7132C31.0377 0.0546875 31.2919 0.13367 31.4757 0.291634C31.6624 0.446727 31.7558 0.662133 31.7558 0.937853C31.7558 1.1389 31.7055 1.30979 31.605 1.45052C31.5044 1.58838 31.3608 1.68747 31.1742 1.74778L31.7256 2.59217ZM30.3427 0.455343V1.41606H30.6787C30.851 1.41606 30.986 1.37441 31.0837 1.29112C31.1842 1.20496 31.2345 1.0872 31.2345 0.937853C31.2345 0.788505 31.1842 0.670749 31.0837 0.584587C30.9832 0.498424 30.8482 0.455343 30.6787 0.455343H30.3427Z" fill="#838395"/>
<path d="M29.1722 2.54909C29.2411 2.54909 29.2943 2.56776 29.3316 2.6051C29.3718 2.63956 29.3919 2.68839 29.3919 2.75157C29.3919 2.81763 29.3718 2.86933 29.3316 2.90667C29.2943 2.94113 29.2411 2.95836 29.1722 2.95836H27.9659C27.8826 2.95836 27.818 2.93395 27.7721 2.88512C27.7261 2.8363 27.7031 2.76881 27.7031 2.68264V0.330407C27.7031 0.244245 27.7261 0.176751 27.7721 0.127926C27.818 0.0791002 27.8826 0.0546875 27.9659 0.0546875H29.1507C29.2196 0.0546875 29.2727 0.0733561 29.3101 0.110693C29.3503 0.145158 29.3704 0.195419 29.3704 0.261477C29.3704 0.324663 29.3503 0.374925 29.3101 0.412262C29.2727 0.446727 29.2196 0.463959 29.1507 0.463959H28.2029V1.22219H29.0473C29.1162 1.22219 29.1693 1.24086 29.2067 1.27819C29.2469 1.31266 29.267 1.36149 29.267 1.42467C29.267 1.48786 29.2469 1.53812 29.2067 1.57546C29.1693 1.60992 29.1162 1.62715 29.0473 1.62715H28.2029V2.54909H29.1722Z" fill="#838395"/>
<path d="M26.9963 0.0292969C27.0681 0.0292969 27.127 0.0522735 27.1729 0.0982268C27.2189 0.141308 27.2419 0.197314 27.2419 0.266244C27.2419 0.294964 27.2376 0.325121 27.2289 0.356714L26.531 2.72187C26.4793 2.89707 26.3716 2.98467 26.2079 2.98467C26.1246 2.98467 26.0543 2.96169 25.9968 2.91574C25.9394 2.86979 25.8992 2.80516 25.8762 2.72187L25.3592 0.877997L24.8379 2.72187C24.815 2.80516 24.7747 2.86979 24.7173 2.91574C24.6599 2.96169 24.5909 2.98467 24.5105 2.98467C24.3439 2.98467 24.2348 2.89707 24.1831 2.72187L23.4895 0.373947C23.4809 0.339482 23.4766 0.306453 23.4766 0.27486C23.4766 0.203058 23.5024 0.14418 23.5541 0.0982268C23.6058 0.0522735 23.669 0.0292969 23.7437 0.0292969C23.8011 0.0292969 23.8514 0.0465294 23.8945 0.0809943C23.9375 0.115459 23.9663 0.161413 23.9806 0.218854L24.545 2.26952L25.105 0.236087C25.1424 0.101099 25.2285 0.033605 25.3635 0.033605C25.5043 0.033605 25.5933 0.101099 25.6306 0.236087L26.195 2.28244L26.7594 0.218854C26.7737 0.161413 26.8024 0.115459 26.8455 0.0809943C26.8886 0.0465294 26.9389 0.0292969 26.9963 0.0292969Z" fill="#838395"/>
<path d="M21.7535 3.01569C21.4721 3.01569 21.2165 2.95107 20.9867 2.82182C20.7569 2.68971 20.576 2.50877 20.4439 2.279C20.3146 2.04923 20.25 1.79218 20.25 1.50784C20.25 1.22351 20.3146 0.966456 20.4439 0.736689C20.576 0.506923 20.7569 0.327418 20.9867 0.198174C21.2165 0.0660579 21.4721 0 21.7535 0C22.0379 0 22.2949 0.0660579 22.5247 0.198174C22.7545 0.33029 22.934 0.511231 23.0632 0.740997C23.1953 0.970764 23.2614 1.22638 23.2614 1.50784C23.2614 1.78931 23.1953 2.04492 23.0632 2.27469C22.934 2.50446 22.7545 2.6854 22.5247 2.81751C22.2949 2.94963 22.0379 3.01569 21.7535 3.01569ZM21.7535 2.58918C21.9431 2.58918 22.1125 2.54323 22.2619 2.45132C22.4112 2.35942 22.5276 2.23161 22.6109 2.0679C22.6941 1.90419 22.7358 1.71751 22.7358 1.50784C22.7358 1.29818 22.6941 1.1115 22.6109 0.947788C22.5276 0.781207 22.4112 0.651963 22.2619 0.560056C22.1125 0.468149 21.9431 0.422196 21.7535 0.422196C21.564 0.422196 21.3945 0.468149 21.2452 0.560056C21.0987 0.651963 20.9838 0.779771 20.9005 0.943479C20.8172 1.10719 20.7756 1.29531 20.7756 1.50784C20.7756 1.72038 20.8172 1.9085 20.9005 2.07221C20.9838 2.23592 21.0987 2.36372 21.2452 2.45563C21.3945 2.54467 21.564 2.58918 21.7535 2.58918Z" fill="#838395"/>
<path d="M18.9381 0.0546875C19.2627 0.0546875 19.5169 0.135106 19.7007 0.295942C19.8845 0.453907 19.9764 0.672185 19.9764 0.950777C19.9764 1.22937 19.8845 1.44765 19.7007 1.60561C19.5169 1.76358 19.2627 1.84256 18.9381 1.84256H18.5935V2.71711C18.5935 2.8004 18.572 2.86646 18.5289 2.91528C18.4858 2.96124 18.424 2.98421 18.3436 2.98421C18.2632 2.98421 18.2015 2.96124 18.1584 2.91528C18.1153 2.86646 18.0938 2.8004 18.0938 2.71711V0.330408C18.0938 0.244245 18.1167 0.176751 18.1627 0.127926C18.2086 0.0791002 18.2733 0.0546875 18.3565 0.0546875H18.9381ZM18.908 1.43329C19.0774 1.43329 19.211 1.39021 19.3086 1.30404C19.4092 1.21501 19.4594 1.09438 19.4594 0.942161C19.4594 0.792813 19.4092 0.675057 19.3086 0.588895C19.211 0.49986 19.0774 0.455343 18.908 0.455343H18.5849V1.43329H18.908Z" fill="#838395"/>
</svg>
